<?xml version="1.0" standalone="no"?>
<!DOCTYPE svg PUBLIC "-//W3C//DTD SVG 20010904//EN"
 "http://www.w3.org/TR/2001/REC-SVG-20010904/DTD/svg10.dtd">
<svg version="1.0" xmlns="http://www.w3.org/2000/svg"
 width="251.000000pt" height="324.000000pt" viewBox="0 0 251.000000 324.000000"
 preserveAspectRatio="xMidYMid meet">
<metadata>
Created by potrace 1.12, written by Peter Selinger 2001-2015
</metadata>
<g transform="translate(0.000000,324.000000) scale(0.100000,-0.100000)"
fill="#000000" stroke="none">
<path d="M1015 3220 c-44 -4 -100 -13 -125 -19 -104 -28 -250 -88 -313 -128
-86 -55 -211 -159 -228 -189 -6 -13 -30 -35 -53 -49 -50 -32 -109 -106 -101
-128 4 -9 -5 -23 -24 -37 -69 -48 -148 -220 -122 -263 10 -15 8 -22 -13 -38
-24 -19 -26 -26 -26 -109 0 -75 3 -89 17 -92 15 -3 17 -16 14 -103 -1 -55 5
-157 13 -227 15 -120 18 -131 57 -193 40 -64 41 -68 35 -128 -4 -36 -2 -76 5
-97 6 -19 14 -70 19 -112 5 -42 24 -121 44 -175 19 -54 36 -113 38 -132 3 -33
6 -35 53 -46 99 -24 101 -26 108 -97 4 -35 31 -139 60 -233 45 -143 62 -184
110 -257 48 -74 71 -98 157 -163 90 -68 111 -79 202 -107 165 -49 417 -96 526
-97 71 -1 119 19 277 117 101 62 261 211 330 307 78 109 155 354 155 495 0 55
6 64 51 83 56 23 76 57 84 140 4 39 13 106 21 147 8 41 14 102 14 135 0 33 10
93 21 133 18 59 25 71 39 67 15 -5 19 7 28 82 18 152 14 464 -8 569 -41 197
-167 422 -325 578 -167 165 -238 221 -323 256 -43 18 -96 43 -119 56 -23 13
-57 24 -75 24 -18 0 -62 9 -96 20 -55 17 -90 20 -255 19 -106 -1 -228 -5 -272
-9z m225 -795 c0 -10 10 -15 33 -15 18 0 38 -5 44 -11 8 -8 16 -8 30 0 17 10
16 10 -4 11 -13 0 -23 5 -23 10 0 6 18 10 40 10 30 0 40 -4 40 -16 0 -13 3
-14 14 -5 8 7 25 9 40 5 19 -4 33 -1 46 11 17 15 22 16 36 4 15 -12 15 -14 -7
-20 -23 -7 -23 -7 -2 -8 12 -1 27 7 33 17 8 13 9 11 4 -12 -6 -26 -5 -28 15
-21 24 7 61 -18 61 -42 0 -22 24 -93 32 -93 10 0 25 -60 24 -95 -1 -18 -6 -29
-13 -27 -7 1 -13 -7 -13 -18 0 -11 4 -20 9 -20 15 0 24 -72 10 -80 -8 -6 -5
-11 10 -19 13 -7 21 -21 21 -36 0 -14 3 -25 8 -25 4 0 7 -12 7 -27 0 -56 -54
-91 -155 -97 -70 -5 -120 -19 -120 -36 0 -5 -13 -10 -29 -10 -16 0 -34 -7 -41
-15 -9 -11 -16 -12 -30 -3 -14 9 -24 8 -45 -6 -23 -15 -29 -16 -43 -3 -18 15
-64 27 -119 30 -17 1 -29 5 -26 10 2 4 -31 7 -74 7 -43 0 -107 5 -143 11 -36
7 -108 13 -160 14 -92 3 -95 4 -95 27 0 12 -3 28 -6 33 -4 6 -5 26 -4 45 1 19
-4 44 -11 55 -20 29 -17 43 17 83 25 28 30 41 25 66 -5 29 -5 30 10 11 8 -11
17 -30 21 -42 7 -32 17 -29 31 11 9 23 20 36 35 38 19 3 23 11 29 58 4 34 3
56 -4 59 -5 2 1 9 14 15 12 6 34 31 47 54 13 25 35 48 50 53 14 6 39 16 54 24
15 8 34 12 42 9 7 -3 29 -1 48 4 26 7 42 6 62 -4 38 -19 45 -18 45 11 0 23 4
25 40 25 29 0 40 -4 40 -15z m115 -860 c17 -11 21 -29 27 -127 25 -394 25
-436 6 -453 -16 -15 -68 -28 -68 -17 0 4 -15 6 -34 4 -25 -3 -40 2 -54 16 -18
18 -26 19 -54 11 -49 -14 -64 -11 -92 15 -32 29 -33 47 -2 82 l23 28 27 -29
27 -30 -5 27 c-5 21 -3 26 8 22 8 -3 22 -16 30 -30 10 -15 22 -21 32 -17 25 9
9 83 -24 111 -22 18 -24 24 -12 32 12 8 12 10 -2 15 -10 4 -29 -2 -47 -14 -16
-12 -36 -21 -46 -21 -9 0 -35 -9 -57 -20 -23 -11 -45 -20 -50 -20 -4 0 -33
-17 -64 -37 -31 -21 -64 -42 -73 -48 -20 -12 -47 -34 -68 -57 -9 -9 -21 -14
-27 -12 -7 3 -27 -11 -46 -31 -19 -19 -37 -35 -41 -35 -15 0 -76 66 -87 95 -7
17 -13 50 -15 75 -1 25 -6 51 -11 58 -4 7 -3 19 4 27 6 8 9 19 5 25 -4 6 -2
17 5 25 8 10 8 19 1 33 -16 30 11 59 69 71 28 6 106 11 174 11 134 0 221 12
245 34 9 8 20 14 25 14 11 -1 66 51 66 62 0 5 10 15 22 21 18 10 24 8 35 -6
12 -18 13 -18 33 0 13 12 20 31 20 56 0 31 5 41 27 52 16 9 31 11 37 5 6 -5
20 -15 31 -23z m177 -146 c2 -5 17 -12 33 -14 118 -16 180 -27 194 -34 9 -5
60 -9 114 -9 54 0 114 -6 133 -12 l35 -12 -3 -106 c-2 -85 -7 -110 -20 -124
-10 -10 -18 -27 -18 -37 0 -11 -13 -34 -30 -52 -28 -32 -30 -32 -70 -20 -22 6
-46 21 -53 31 -6 11 -19 20 -28 20 -8 0 -22 12 -29 26 -8 14 -28 32 -45 40
-32 15 -124 72 -163 100 -18 12 -23 23 -20 45 3 16 1 29 -4 29 -4 0 -8 8 -8
18 0 9 -10 33 -22 52 -12 19 -22 43 -23 53 -2 18 21 24 27 6z m-749 -721 c18
-17 33 -36 33 -42 1 -6 2 -17 3 -24 1 -13 47 -7 64 8 16 15 97 -38 102 -66 1
-11 8 -18 14 -17 6 2 11 -6 11 -16 0 -10 7 -22 16 -25 9 -4 14 -9 11 -13 -8
-8 40 -53 56 -53 8 0 8 3 2 8 -5 4 -16 18 -23 31 -12 20 -12 25 0 32 8 5 17 3
24 -6 6 -8 17 -15 24 -15 7 0 10 -7 6 -16 -4 -9 1 -25 9 -34 14 -16 14 -18 0
-23 -21 -9 -19 -37 4 -37 10 0 43 -13 74 -28 39 -20 60 -25 67 -18 7 7 13 7
20 0 7 -7 27 -8 58 -2 113 20 122 20 136 8 9 -6 20 -9 27 -5 12 8 59 -13 59
-27 0 -17 -28 -38 -50 -38 -13 0 -24 -8 -27 -20 -3 -11 -9 -20 -14 -20 -5 0
-9 -9 -9 -20 0 -11 -6 -20 -13 -20 -8 0 -22 -9 -32 -20 -19 -21 -50 -27 -60
-11 -3 6 -18 6 -38 -1 -72 -22 -96 -25 -106 -15 -9 9 -17 8 -32 -1 -28 -18
-76 -6 -95 24 -9 13 -20 22 -24 19 -4 -3 -10 2 -14 10 -3 8 0 15 6 15 31 0
-14 22 -58 28 -43 7 -49 10 -49 32 0 17 -7 26 -25 30 -14 4 -24 12 -23 18 2 7
-3 12 -10 12 -8 0 -7 4 3 10 13 9 12 12 -4 25 -11 8 -15 15 -9 15 6 0 13 7 17
15 4 12 0 14 -19 9 -29 -7 -33 3 -8 21 16 12 16 16 3 41 -20 40 -41 64 -51 58
-5 -2 -11 7 -15 21 -3 14 -12 25 -20 25 -16 0 -29 43 -20 66 4 12 2 15 -9 10
-8 -3 -15 -1 -15 4 0 6 -7 10 -15 10 -16 0 -19 17 -9 44 8 22 11 21 47 -16z
m1157 16 c0 -16 -44 -96 -79 -144 -22 -30 -53 -72 -68 -93 -15 -20 -32 -36
-38 -34 -14 5 -13 48 2 73 6 12 9 31 6 42 -4 17 2 24 30 36 20 8 42 27 51 43
20 39 64 83 81 83 8 0 15 -2 15 -6z"/>
</g>
</svg>
